<svg width="510" height="178" viewBox="0 0 510 178" fill="none" xmlns="http://www.w3.org/2000/svg">
<path d="M341.401 4.1001C334.701 4.1001 329.301 9.5001 329.301 16.2001V161.9C329.301 168.6 334.701 174 341.401 174C348.101 174 353.501 168.6 353.501 161.9V16.2001C353.501 9.6001 348.101 4.1001 341.401 4.1001Z" fill="white"/>
<path d="M145.401 43.5C138.701 43.5 133.301 48.9 133.301 55.6V162C133.301 168.7 138.701 174.1 145.401 174.1C152.101 174.1 157.501 168.7 157.501 162V55.5C157.501 48.9 152.101 43.5 145.401 43.5Z" fill="white"/>
<path d="M160.898 16.2002C160.898 24.7002 153.998 31.4002 145.398 31.4002C136.898 31.4002 129.898 24.8002 129.898 16.2002C129.898 7.60019 136.798 0.700195 145.398 0.700195C153.998 0.800195 160.898 7.7002 160.898 16.2002Z" fill="#5A646E"/>
<path d="M307.499 82C295.899 55.8 268.499 37.3 237.199 40.4C204.199 43.7 178.099 70.7001 175.699 103.8C172.799 144.1 204.599 177.6 244.299 177.6C263.299 177.6 277.299 170.2 285.999 163.6C292.099 159 292.299 149.9 286.499 144.9C282.199 141.2 275.999 141 271.499 144.4C265.399 149 255.499 154.2 242.199 153.6C224.299 152.7 209.099 141.3 202.699 125.5C201.499 122.4 203.699 119 206.999 119H290.799C302.399 119 311.199 109.6 311.199 98.7C311.299 92.6 309.299 85.9 307.499 82ZM244.299 64C263.199 64 279.399 75.7 285.899 92.2C287.099 95.3 284.899 98.6001 281.599 98.6001H206.999C203.699 98.6001 201.399 95.3 202.699 92.2C209.299 75.7 225.399 64 244.299 64Z" fill="white"/>
<path d="M440.302 153.7C415.502 153.7 395.502 133.6 395.502 108.9C395.502 97.5999 399.702 87.3999 406.502 79.4999L388.302 63.8999C377.902 75.9999 371.602 91.6999 371.602 108.9C371.602 146.9 402.402 177.7 440.402 177.7C461.402 177.7 480.302 168.2 492.902 153.3L474.702 137.7C466.402 147.4 454.102 153.7 440.302 153.7Z" fill="white"/>
<path d="M440.301 40.1001C419.501 40.1001 400.901 49.3001 388.301 63.9001L406.501 79.5001C414.701 70.1001 426.801 64.1001 440.301 64.1001C465.101 64.1001 485.101 84.2001 485.101 108.9C485.101 119.9 481.101 130 474.601 137.8L492.801 153.4C502.901 141.4 509.101 125.9 509.101 109C509.101 70.8001 478.301 40.1001 440.301 40.1001Z" fill="#5A646E"/>
<path d="M111.101 145C106.801 141.3 100.501 141 96.0012 144.5C88.5012 150.3 79.0012 153.7 68.8012 153.7C43.5012 153.7 23.0012 132.7 24.0012 107.1C24.9012 84.5 42.1012 66.2 64.6012 64.2C76.4012 63.1 87.3012 66.6 95.9012 73.1C100.401 76.5 106.701 76.4 111.001 72.7C116.801 67.8 116.601 58.8 110.601 54.1C97.9012 44.4 81.7012 39 64.1012 40.1C29.5012 42.4 1.8012 70.6 0.101198 105.3C-1.7988 144.8 29.7012 177.5 68.8012 177.5C84.6012 177.5 99.1012 172.2 110.701 163.2C116.701 158.8 116.801 149.9 111.101 145Z" fill="white"/>
</svg>
