<svg id="Capa_1" enable-background="new 0 0 512 512" height="512" viewBox="0 0 512 512" width="512" xmlns="http://www.w3.org/2000/svg"><g><g><circle cx="256.004" cy="256" fill="#ff9eb1" r="246"/><g fill="#faf7f5"><path d="m256.004 190.145c-17.56 0-31.796-14.236-31.796-31.796v-56.613c0-17.56 14.236-31.796 31.796-31.796s31.796 14.235 31.796 31.795v56.613c0 17.561-14.236 31.797-31.796 31.797z"/><path d="m256.004 442.061c-100.663 0-182.558-81.895-182.558-182.557 0-52.159 22.389-101.941 61.428-136.583 13.135-11.656 33.231-10.459 44.887 2.678 11.655 13.135 10.456 33.231-2.678 44.886-25.448 22.583-40.044 55.03-40.044 89.019 0 65.597 53.367 118.965 118.965 118.965s118.965-53.367 118.965-118.965c0-33.99-14.596-66.436-40.044-89.019-13.134-11.656-14.334-31.752-2.678-44.886 11.655-13.136 31.752-14.335 44.887-2.678 39.038 34.642 61.428 84.425 61.428 136.583 0 100.662-81.895 182.557-182.558 182.557z"/></g></g><g><g><g><g><path d="m511.804 254.05c-.77-4.1-4.262-7.37-8.38-7.947-4.178-.586-8.382 1.57-10.306 5.332-1.901 3.717-1.27 8.345 1.589 11.401 2.814 3.008 7.318 3.965 11.117 2.394 4.344-1.797 6.918-6.562 5.98-11.18z"/><path d="m499.647 291.639c-5.429-1.016-10.652 2.565-11.667 7.993-20.829 111.466-118.389 192.368-231.976 192.368-130.131 0-236-105.869-236-236s105.869-236 236-236c113.646 0 211.216 80.952 231.999 192.487 1.012 5.43 6.236 9.008 11.663 7.999 5.429-1.012 9.01-6.233 7.999-11.663-22.547-121-128.386-208.823-251.661-208.823-68.38 0-132.667 26.629-181.019 74.98-48.352 48.353-74.981 112.64-74.981 181.02s26.629 132.667 74.981 181.02c48.352 48.351 112.639 74.98 181.019 74.98 123.211 0 229.039-87.769 251.636-208.694 1.014-5.429-2.564-10.653-7.993-11.667z"/><path d="m297.8 158.349v-56.613c0-23.046-18.75-41.796-41.796-41.796s-41.796 18.75-41.796 41.796v56.613c0 23.046 18.75 41.796 41.796 41.796s41.796-18.75 41.796-41.796zm-63.592 0v-56.613c0-12.019 9.778-21.796 21.796-21.796 12.019 0 21.796 9.777 21.796 21.796v56.613c0 12.019-9.778 21.796-21.796 21.796-12.019 0-21.796-9.778-21.796-21.796z"/><path d="m183.72 177.964c17.238-15.296 18.817-41.765 3.52-59.004-7.41-8.351-17.629-13.315-28.773-13.979-11.143-.665-21.879 3.051-30.23 10.461-41.175 36.537-64.79 89.046-64.79 144.063 0 106.176 86.381 192.557 192.558 192.557s192.558-86.381 192.558-192.557c0-55.017-23.615-107.525-64.789-144.062-8.35-7.412-19.086-11.133-30.232-10.463-11.144.665-21.363 5.63-28.772 13.98-15.297 17.239-13.718 43.708 3.52 59.004 23.312 20.688 36.682 50.408 36.682 81.54 0 60.083-48.882 108.965-108.965 108.965s-108.965-48.882-108.965-108.965c-.003-31.132 13.367-60.853 36.678-81.54zm-13.275-14.959c-27.585 24.48-43.406 59.653-43.406 96.499 0 71.111 57.854 128.965 128.965 128.965s128.965-57.854 128.965-128.965c0-36.846-15.821-72.019-43.407-96.499-8.989-7.978-9.813-21.78-1.836-30.77 3.864-4.355 9.193-6.944 15.004-7.291 5.818-.348 11.41 1.591 15.765 5.456 36.901 32.745 58.065 79.802 58.065 129.104 0 95.148-77.409 172.557-172.558 172.557s-172.556-77.409-172.556-172.557c0-49.302 21.164-96.358 58.065-129.104 4.023-3.57 9.107-5.495 14.439-5.495.44 0 .882.013 1.326.039 5.812.347 11.14 2.936 15.004 7.291 7.978 8.99 7.155 22.792-1.835 30.77z"/></g></g></g></g></g></svg>