<svg id="Layer_1" enable-background="new 0 0 510 510" height="512" viewBox="0 0 510 510" width="512" xmlns="http://www.w3.org/2000/svg"><g id="XMLID_1424_"><path id="XMLID_1505_" d="m225 0c-24.812 0-45 20.187-45 45v30c5.246 5.246 9.754 9.754 15 15 5.246-5.246 9.754-9.754 15-15 0-10.492 0-19.508 0-30 0-8.271 6.729-15 15-15h30l10-15-10-15h-15z" fill="#d5def0"/><path id="XMLID_1504_" d="m300 45v30c5.246 5.246 9.754 9.754 15 15 5.246-5.246 9.754-9.754 15-15 0-10.492 0-19.508 0-30 0-24.812-20.185-45-45-45-10.492 0-19.508 0-30 0v30h30c8.271 0 15 6.729 15 15z" fill="#c2c9da"/><path id="XMLID_1503_" d="m89.943 135c1.249 14.362 27.6 317.42 28.889 332.243 1.193 24.014 20.872 42.757 44.944 42.757h91.224l10-195-10-180-83.181-15z" fill="#6058ad"/><path id="XMLID_1502_" d="m391.168 467.243c1.289-14.827 27.64-317.885 28.888-332.243l-81.876-15-83.18 15v375h91.224c24.047 0 43.751-18.717 44.944-42.757z" fill="#453f81"/><path id="XMLID_1434_" d="m240 240v165h15l10-82.5-10-82.5c-5.246 0-9.754 0-15 0z" fill="#ffda2d"/><path id="XMLID_1432_" d="m270 240c-5.246 0-9.754 0-15 0v165h15c0-4.654 0-160.348 0-165z" fill="#fdbf00"/><g id="XMLID_1428_"><g><path id="XMLID_231_" d="m210 405c-10.492 0-19.508 0-30 0 0-4.654 0-160.348 0-165h30z" fill="#ffda2d"/></g></g><g id="XMLID_1426_"><g><path id="XMLID_228_" d="m300 405h30c0-4.654 0-160.348 0-165-10.492 0-19.508 0-30 0z" fill="#fdbf00"/></g></g><path id="XMLID_1427_" d="m60 75v60h195l10-30-10-30c-10.822 0-184.178 0-195 0z" fill="#ffda2d"/><path id="XMLID_1425_" d="m450 75c-10.822 0-184.178 0-195 0v60h195c0-7.259 0-52.693 0-60z" fill="#fdbf00"/></g></svg>